<svg xmlns="http://www.w3.org/2000/svg" xmlns:xlink="http://www.w3.org/1999/xlink" width="53.497" height="47" viewBox="0 0 53.497 47">
  <defs>
    <clipPath id="clip-path">
      <rect id="Rettangolo_495" data-name="Rettangolo 495" width="53.497" height="47" fill="none"/>
    </clipPath>
  </defs>
  <g id="Raggruppa_1035" data-name="Raggruppa 1035" transform="translate(0 0)">
    <g id="Raggruppa_1035-2" data-name="Raggruppa 1035" transform="translate(0 0)" clip-path="url(#clip-path)">
      <path id="Tracciato_1573" data-name="Tracciato 1573" d="M8.98,40.4A22.121,22.121,0,0,0,26.7,53.53a.4.4,0,0,0,.1-.788,19.265,19.265,0,0,1-13.456-8.331,24.656,24.656,0,0,1-3.151-6.916l4.976-11.752c.082-.222.166-.415.359-.415s.194.332.194.609v9.189a16.409,16.409,0,0,1-.5,4.981h4.068a9.519,9.519,0,0,1-.857-3.626,94.574,94.574,0,0,1-.222-10.1c0-1.384-.084-2.879.554-3.931H15.943c-.693,0-.885.581-1.134,1.163L10.02,35.153c-.166.388-.249.665-.5.665-.221,0-.3-.471-.443-.886L5.147,22.864c-.111-.36-.526-.415-.859-.415H.692c.664.415.692.8.692,1.551v6.918c0,2.99-.111,7.364-1.134,8.83L0,40.107H3.294c-.608-.912-.608-2.711-.608-4.87l.027-9c0-.415,0-.913.249-.913s.443.664.748,1.467Z" transform="translate(0 -6.533)" fill="#00297a" fill-rule="evenodd"/>
      <path id="Tracciato_1574" data-name="Tracciato 1574" d="M34.889,39h3.183a7.1,7.1,0,0,0,4.789-1.577l-.5,2.545c-.747.056-1.66.138-2.657.138h-8a7.035,7.035,0,0,0,.693-3.626V26.076a7.034,7.034,0,0,0-.609-3.627h9.659l.111,2.131a6.292,6.292,0,0,0-4.1-1.024H34.889v6.615c2.131,0,4.373,0,6.5-.194-.968,1.578-4.1,1.578-5.812,1.578h-.693Z" transform="translate(-9.227 -6.533)" fill="#00297a" fill-rule="evenodd"/>
      <path id="Tracciato_1575" data-name="Tracciato 1575" d="M53.577,36.481a7.031,7.031,0,0,0,.609,3.626H50.477a7.031,7.031,0,0,0,.609-3.626V26.076a7.03,7.03,0,0,0-.554-3.627h8.581c.691,0,1.273,0,1.273.248v2.16h-.138c-.774-1.274-2.518-1.3-3.819-1.3H53.577v7.113c2.131,0,4.372,0,6.5-.194-.968,1.578-4.1,1.578-5.812,1.578h-.691Z" transform="translate(-14.689 -6.533)" fill="#00297a" fill-rule="evenodd"/>
      <path id="Tracciato_1576" data-name="Tracciato 1576" d="M13.795,14.326a.419.419,0,0,0,.2.535.39.39,0,0,0,.522-.185A22.2,22.2,0,0,1,33.959,3.536C48.3,3.536,54.132,15.321,54.6,23.242a24.481,24.481,0,0,1-3.911,13.8c-2.319,3.631-6.526,8.161-13.4,9.115a.42.42,0,0,0-.342.471.408.408,0,0,0,.44.367C48.811,45.6,57.5,35.533,57.5,23.584,57.5,10.6,47.266.038,34.768,0h-.159A22.7,22.7,0,0,0,13.795,14.326" transform="translate(-4.005 0)" fill="#bf8000" fill-rule="evenodd"/>
    </g>
  </g>
</svg>
